<?xml version="1.0" encoding="utf-8"?>
<!-- Generator: Adobe Illustrator 25.2.1, SVG Export Plug-In . SVG Version: 6.00 Build 0)  -->
<svg version="1.1" id="レイヤー_1" xmlns="http://www.w3.org/2000/svg" xmlns:xlink="http://www.w3.org/1999/xlink" x="0px"
	 y="0px" viewBox="0 0 330 42" style="enable-background:new 0 0 330 42;" xml:space="preserve">
<style type="text/css">
	.st0{fill:none;}
	.st1{fill:#85CFF1;}
	.st2{fill:#44731F;}
	.st3{fill:#4B7E24;}
	.st4{fill:#6F9E2C;}
	.st5{fill:#508527;}
	.st6{fill:#7D9B48;}
	.st7{fill:#578E2B;}
	.st8{fill:#835014;}
	.st9{fill:#623901;}
	.st10{fill:#A57942;}
	.st11{fill:#9C611F;}
	.st12{fill:#71440A;}
	.st13{fill:#B08147;}
	.st14{fill:#231815;}
	.st15{fill:#374C10;}
	.st16{fill:#74460C;}
	.st17{fill:#563000;}
	.st18{fill:#886333;}
	.st19{display:none;}
	.st20{display:inline;fill:url(#SVGID_1_);stroke:#25770B;stroke-miterlimit:10;}
	.st21{display:inline;fill:url(#SVGID_2_);stroke:#25770B;stroke-miterlimit:10;}
	.st22{display:inline;fill:url(#SVGID_3_);stroke:#25770B;stroke-miterlimit:10;}
	.st23{display:inline;fill:url(#SVGID_4_);stroke:#25770B;stroke-miterlimit:10;}
	.st24{display:inline;fill:url(#SVGID_5_);stroke:#25770B;stroke-miterlimit:10;}
	.st25{display:inline;fill:url(#SVGID_6_);stroke:#25770B;stroke-miterlimit:10;}
	.st26{display:inline;fill:url(#SVGID_7_);stroke:#25770B;stroke-miterlimit:10;}
	.st27{display:inline;fill:url(#SVGID_8_);stroke:#25770B;stroke-miterlimit:10;}
	.st28{display:inline;fill:url(#SVGID_9_);stroke:#25770B;stroke-miterlimit:10;}
	.st29{display:inline;fill:url(#SVGID_10_);stroke:#25770B;stroke-miterlimit:10;}
	.st30{display:inline;fill:url(#SVGID_11_);stroke:#25770B;stroke-miterlimit:10;}
	.st31{display:inline;fill:url(#SVGID_12_);stroke:#25770B;stroke-miterlimit:10;}
	.st32{display:inline;fill:url(#SVGID_13_);stroke:#25770B;stroke-miterlimit:10;}
	.st33{display:inline;fill:url(#SVGID_14_);stroke:#25770B;stroke-miterlimit:10;}
	.st34{display:inline;fill:url(#SVGID_15_);stroke:#25770B;stroke-miterlimit:10;}
	.st35{display:inline;fill:url(#SVGID_16_);stroke:#25770B;stroke-miterlimit:10;}
	.st36{fill:#CBF8FF;stroke:#000000;stroke-width:0.25;stroke-miterlimit:10;}
	.st37{fill:#CB4829;stroke:#000000;stroke-width:0.25;stroke-miterlimit:10;}
	.st38{fill:#FBDAC8;stroke:#000000;stroke-width:0.25;stroke-miterlimit:10;}
	.st39{fill:#F9C270;stroke:#000000;stroke-width:0.25;stroke-miterlimit:10;}
	.st40{fill:#B7AA00;stroke:#000000;stroke-width:0.25;stroke-miterlimit:10;}
</style>
<pattern  y="42" width="199.7" height="185" patternUnits="userSpaceOnUse" id="ガマ__x28_カラー_x29_" viewBox="49.9 -341.3 199.7 185" style="overflow:visible;">
	<g>
		<rect x="49.9" y="-341.3" class="st0" width="199.7" height="185"/>
		<g>
			<rect x="49.9" y="-341.3" class="st0" width="199.7" height="185"/>
			<g>
				<rect x="199.7" y="-253.6" class="st1" width="99.9" height="187.1"/>
				<g>
					<path class="st2" d="M237.2,0l-0.4-233.9l1.4-0.4C238.2-234.3,243.5-1.8,237.2,0z"/>
					<path class="st3" d="M236.6-217.8c0,0-3.9,104.3,9.6,141.8C241.2-99.3,240.5-178.5,236.6-217.8z"/>
					<g>
						<path class="st2" d="M247.9-34.4l17.5-164.9l0.5-16C265.9-215.2,262-47.1,247.9-34.4z"/>
					</g>
					<path class="st4" d="M222.9-44.3c-6.1-9.8-1.5-172.4,1.6-182.5h1.9C226.4-226.8,219.3-50.1,222.9-44.3z"/>
					<g>
						<path class="st4" d="M244.7-109.5c-6.1-9.8-9.4-129-6.2-139.1h1.9C240.4-248.6,241.1-115.3,244.7-109.5z"/>
						<path class="st5" d="M238.3-238.3c0,0-3.7,114,22.6,129.1C247.3-124.2,240.2-217.9,238.3-238.3z"/>
						<path class="st6" d="M238.8-246.2c0,0,12.2,113.2,40.9,123.2C263.7-135.2,244.5-226.5,238.8-246.2z"/>
						<path class="st2" d="M236.9-245.3c0,0,11,126.1,38.5,139.1C260.7-120.1,240.4-225.1,236.9-245.3z"/>
					</g>
					<g>
						<path class="st6" d="M227.6-200.4c0,0-15.1,123,9.5,140.8C225.2-76,227.3-179.9,227.6-200.4z"/>
					</g>
					<path class="st5" d="M207.4-211.9c0,0-1.6,124.2,25.2,138.4C218.5-88.1,209.9-191.5,207.4-211.9z"/>
					<path class="st6" d="M201.4-61.1c0,0,41.4-137.5,21.6-160.5C230.8-203,206.5-81,201.4-61.1z"/>
					<path class="st2" d="M228.1-202.9c0,0-5.6,129.6-21.3,166.3C208-44.7,221.8-163.9,228.1-202.9z"/>
				</g>
				<path class="st2" d="M237.5-205.9c0,0-1.2,129.8-15.4,167.1C223-46.9,232.9-166.6,237.5-205.9z"/>
			</g>
			<g>
				<rect x="99.9" y="-253.6" class="st1" width="99.9" height="187.1"/>
				<g>
					<path class="st4" d="M164-82.2l7.2-164.3l2.1,0.4C173.3-246.2,170.7-84,164-82.2z"/>
					<path class="st2" d="M137.3,0L137-233.9l1.4-0.4C138.4-234.3,143.7-1.8,137.3,0z"/>
					<path class="st2" d="M165.4-239.3c0,0-5.3,128,17.2,163.5C167.3-113.3,169.3-200,165.4-239.3z"/>
					<path class="st3" d="M136.7-217.8c0,0-3.9,104.3,9.6,141.8C141.3-99.3,140.6-178.5,136.7-217.8z"/>
					<g>
						<path class="st2" d="M148.1-34.4l17.5-164.9l0.5-16C166-215.2,162.2-47.1,148.1-34.4z"/>
					</g>
					<path class="st4" d="M123-44.3c-6.1-9.8-1.5-172.4,1.6-182.5h1.9C126.5-226.8,119.4-50.1,123-44.3z"/>
					<path class="st5" d="M181.2-216.9c0,0-1.5,101.9-15,139.5C166.9-85.6,177.3-177.6,181.2-216.9z"/>
					<g>
						<path class="st4" d="M144.9-109.5c-6.1-9.8-9.4-129-6.2-139.1h1.9C140.5-248.6,141.2-115.3,144.9-109.5z"/>
						<path class="st5" d="M138.4-238.3c0,0-3.7,114,22.6,129.1C147.5-124.2,140.3-217.9,138.4-238.3z"/>
						<path class="st6" d="M139-246.2c0,0,12.2,113.2,40.9,123.2C163.8-135.2,144.6-226.5,139-246.2z"/>
						<path class="st2" d="M137-245.3c0,0,11,126.1,38.5,139.1C160.8-120.1,140.6-225.1,137-245.3z"/>
					</g>
					<g>
						<path class="st4" d="M194.9-21.3c-7.4-7.4-6.1-182.4-2.9-192.5h1.9C193.9-213.8,190.1-26.1,194.9-21.3z"/>
						<path class="st6" d="M171.2-46.1c0,0,41.4-137.5,21.6-160.5C200.6-187.9,176.3-66,171.2-46.1z"/>
						<path class="st6" d="M127.8-200.4c0,0-15.1,123,9.5,140.8C125.4-76,127.5-179.9,127.8-200.4z"/>
					</g>
					<path class="st2" d="M204.7-202.9c0,0-5.6,129.6-21.3,166.3C184.7-44.7,198.4-163.9,204.7-202.9z"/>
					<path class="st5" d="M107.5-211.9c0,0-1.6,124.2,25.2,138.4C118.7-88.1,110.1-191.5,107.5-211.9z"/>
					<path class="st6" d="M101.5-61.1c0,0,41.4-137.5,21.6-160.5C131-203,106.6-81,101.5-61.1z"/>
					<path class="st2" d="M128.2-202.9c0,0-5.6,129.6-21.3,166.3C108.1-44.7,121.9-163.9,128.2-202.9z"/>
				</g>
				<path class="st7" d="M173.2-230.8c0,0,1,129.8-12.3,167.4C161.5-71.6,169.4-191.5,173.2-230.8z"/>
				<path class="st2" d="M137.7-205.9c0,0-1.2,129.8-15.4,167.1C123.1-46.9,133-166.6,137.7-205.9z"/>
			</g>
			<g>
				<rect y="-253.6" class="st1" width="99.9" height="187.1"/>
				<g>
					<path class="st4" d="M64.1-82.2l7.2-164.4l2.1,0.4C73.5-246.2,70.9-84,64.1-82.2z"/>
					<path class="st2" d="M65.5-239.3c0,0-5.3,128,17.2,163.5C67.4-113.3,69.4-200,65.5-239.3z"/>
					<g>
						<path class="st2" d="M48.2-34.4l17.5-164.9l0.5-16C66.2-215.2,62.3-47.1,48.2-34.4z"/>
					</g>
					<path class="st5" d="M81.3-216.9c0,0-1.5,101.9-15,139.5C67-85.6,77.4-177.6,81.3-216.9z"/>
					<g>
						<path class="st5" d="M38.5-238.3c0,0-3.7,114,22.6,129.1C47.6-124.2,40.5-217.9,38.5-238.3z"/>
						<path class="st6" d="M39.1-246.2c0,0,12.2,113.2,40.9,123.2C63.9-135.2,44.8-226.5,39.1-246.2z"/>
						<path class="st2" d="M37.2-245.3c0,0,11,126.1,38.5,139.1C61-120.1,40.7-225.1,37.2-245.3z"/>
					</g>
					<g>
						<path class="st4" d="M95-21.3c-7.4-7.4-6.1-182.4-2.9-192.5H94C94-213.8,90.2-26.1,95-21.3z"/>
						<path class="st6" d="M71.4-46.1c0,0,41.4-137.5,21.6-160.5C100.8-187.9,76.4-66,71.4-46.1z"/>
					</g>
					<path class="st2" d="M104.9-202.9c0,0-5.6,129.6-21.3,166.3C84.8-44.7,98.6-163.9,104.9-202.9z"/>
				</g>
				<path class="st7" d="M73.3-230.8c0,0,1,129.8-12.3,167.4C61.7-71.6,69.5-191.5,73.3-230.8z"/>
			</g>
			<g>
				<rect x="199.7" y="-438.6" class="st1" width="99.9" height="187.1"/>
				<g>
					<path class="st2" d="M237.2-185l-0.4-233.9l1.4-0.4C238.2-419.3,243.5-186.8,237.2-185z"/>
					<path class="st3" d="M236.6-402.8c0,0-3.9,104.3,9.6,141.8C241.2-284.4,240.5-363.5,236.6-402.8z"/>
					<g>
						<path class="st2" d="M247.9-219.4l17.5-164.9l0.5-16C265.9-400.3,262-232.1,247.9-219.4z"/>
						<path class="st8" d="M244.9-219.9c0-4.7-2.2-8.6-5.8-8.6h-0.6c-3.6,0-6.5,3.8-6.5,8.6v44.5c0,4.7,2.9,8.6,6.5,8.6h0.6
							c3.6,0,5.8-3.8,5.8-8.6V-219.9z"/>
						<path class="st9" d="M234.3-174.7l2.1-46.1c0,0,1.9-4.3,6.6-2.4c-2.8-4.7-8.3-4.7-9,1.7C233.2-213.5,234-179.7,234.3-174.7z"
							/>
						<path class="st10" d="M238.1-170c0,0,6.5-1.2,5.3-17.9C245.1-181.3,244.1-166.1,238.1-170z"/>
					</g>
					<path class="st4" d="M222.9-229.3c-6.1-9.8-1.5-172.4,1.6-182.5h1.9C226.4-411.8,219.3-235.1,222.9-229.3z"/>
					<path class="st11" d="M221.4-254.9c0-4.7-2.2-8.6-5.8-8.6H215c-3.6,0-6.5,3.8-6.5,8.6v44.5c0,4.7,2.9,8.6,6.5,8.6h0.6
						c3.6,0,5.8-3.8,5.8-8.6L221.4-254.9L221.4-254.9z"/>
					<path class="st12" d="M210.8-209.8l2.1-46.1c0,0,1.9-4.2,6.6-2.4c-2.8-4.7-8.3-4.7-9,1.7C209.6-248.6,210.5-214.7,210.8-209.8z
						"/>
					<path class="st13" d="M214.1-204.8c0,0,5.2-0.1,5.9-13.8C221.6-212,220.1-200.9,214.1-204.8z"/>
					<path class="st7" d="M229.7-340.2c3.2,133.3,12.4,136.4,19,154.7C240.7-207.5,233.6-300.8,229.7-340.2z"/>
					<g>
						<path class="st4" d="M244.7-294.5c-6.1-9.8-9.4-129-6.2-139.1h1.9C240.4-433.6,241.1-300.3,244.7-294.5z"/>
						<path class="st11" d="M256.1-315.9c0-4.7-2.2-8.6-5.8-8.6h-0.6c-3.6,0-6.5,3.8-6.5,8.6v44.5c0,4.7,2.9,8.6,6.5,8.6h0.6
							c3.6,0,5.8-3.8,5.8-8.6V-315.9z"/>
						<path class="st12" d="M245.5-270.8l2.1-46.1c0,0,1.9-4.2,6.6-2.4c-2.8-4.7-8.3-4.7-9,1.7C244.4-309.5,245.3-275.7,245.5-270.8
							z"/>
						<path class="st13" d="M249.1-267.2c0,0,4.2,4,4.8-25C255.5-285.7,255.3-259.2,249.1-267.2z"/>
						<path class="st5" d="M238.3-423.4c0,0-3.7,114,22.6,129.1C247.3-309.2,240.2-402.9,238.3-423.4z"/>
						<path class="st6" d="M238.8-431.2c0,0,12.2,113.2,40.9,123.2C263.7-320.3,244.5-411.5,238.8-431.2z"/>
						<path class="st2" d="M236.9-430.3c0,0,11,126.1,38.5,139.1C260.7-305.1,240.4-410.1,236.9-430.3z"/>
					</g>
					<g>
						<path class="st6" d="M227.6-385.4c0,0-15.1,123,9.5,140.8C225.2-261,227.3-364.9,227.6-385.4z"/>
					</g>
					<g>
						<path class="st14" d="M217.8-203.5c0-0.6-1.2-1.2-2.3-1.2s-2.2,0.6-2.2,1.2s1.1,0.1,2.2-0.1
							C216.7-203.8,217.8-202.9,217.8-203.5z"/>
						<path class="st15" d="M214.3-204.4c0.9-0.4,1.9-0.3,2.5,0l-1.3,8.3l-0.5,0.3L214.3-204.4z"/>
					</g>
					<g>
						<path class="st14" d="M240.5-168.2c0.1-0.6-1.1-1.3-2.2-1.4c-1.1-0.1-2.2,0.4-2.3,1s1.1,0.2,2.2,0.1
							C239.3-168.5,240.4-167.6,240.5-168.2z"/>
						<path class="st15" d="M237.1-169.4c0.9-0.4,1.9-0.1,2.5,0.3l-2.1,8.1l-0.5,0.3L237.1-169.4z"/>
					</g>
					<g>
						<path class="st14" d="M252.3-263.9c0-0.6-1.2-1.1-2.3-1.1s-2.2,0.7-2.2,1.2c0,0.6,1.1,0.1,2.2-0.1
							C251.1-264.1,252.3-263.3,252.3-263.9z"/>
						<path class="st15" d="M248.8-264.8c0.9-0.5,1.8-0.3,2.5,0l-1,5.8l-0.5,0.3L248.8-264.8z"/>
					</g>
					<path class="st5" d="M207.4-396.9c0,0-1.6,124.2,25.2,138.4C218.5-273.1,209.9-376.5,207.4-396.9z"/>
					<path class="st6" d="M201.4-246.1c0,0,41.4-137.5,21.6-160.5C230.8-388,206.5-266.1,201.4-246.1z"/>
					<path class="st2" d="M228.1-387.9c0,0-5.6,129.6-21.3,166.3C208-229.7,221.8-348.9,228.1-387.9z"/>
				</g>
				<path class="st2" d="M237.5-390.9c0,0-1.2,129.8-15.4,167.1C223-232,232.9-351.6,237.5-390.9z"/>
			</g>
			<g>
				<rect x="99.9" y="-438.6" class="st1" width="99.9" height="187.1"/>
				<g>
					<g>
						<path class="st4" d="M152.5-168.4c6.8-9.2,17.5-100.5,15.2-110.8l-1.9-0.2C165.9-279.3,156.6-173.8,152.5-168.4z"/>
						<path class="st5" d="M166.4-268.4c0,0-3.7,86.6,22.6,101.6C175.5-181.8,168.3-248,166.4-268.4z"/>
						<path class="st5" d="M167-276.3c0,0,12.2,85.8,40.9,95.7C191.8-192.8,172.6-256.5,167-276.3z"/>
					</g>
					<path class="st4" d="M164-267.3l7.2-164.3l2.1,0.4C173.3-431.2,170.7-269,164-267.3z"/>
					<path class="st2" d="M137.3-185L137-419l1.4-0.4C138.4-419.3,143.7-186.8,137.3-185z"/>
					<path class="st2" d="M165.4-424.3c0,0-5.3,128,17.2,163.5C167.3-298.3,169.3-385,165.4-424.3z"/>
					<path class="st3" d="M136.7-402.8c0,0-3.9,104.3,9.6,141.8C141.3-284.4,140.6-363.5,136.7-402.8z"/>
					<g>
						<path class="st2" d="M148.1-219.4l17.5-164.9l0.5-16C166-400.3,162.2-232.1,148.1-219.4z"/>
						<path class="st8" d="M145-219.9c0-4.7-2.2-8.6-5.8-8.6h-0.6c-3.6,0-6.5,3.8-6.5,8.6v44.5c0,4.7,2.9,8.6,6.5,8.6h0.6
							c3.6,0,5.8-3.8,5.8-8.6V-219.9z"/>
						<path class="st9" d="M134.4-174.7l2.1-46.1c0,0,1.9-4.3,6.6-2.4c-2.8-4.7-8.3-4.7-9,1.7C133.3-213.5,134.2-179.7,134.4-174.7z
							"/>
						<path class="st10" d="M138.2-170c0,0,6.5-1.2,5.3-17.9C145.2-181.3,144.3-166.1,138.2-170z"/>
					</g>
					<path class="st4" d="M123-229.3c-6.1-9.8-1.5-172.4,1.6-182.5h1.9C126.5-411.8,119.4-235.1,123-229.3z"/>
					<path class="st11" d="M121.5-254.9c0-4.7-2.2-8.6-5.8-8.6h-0.6c-3.6,0-6.5,3.8-6.5,8.6v44.5c0,4.7,2.9,8.6,6.5,8.6h0.6
						c3.6,0,5.8-3.8,5.8-8.6V-254.9z"/>
					<path class="st12" d="M110.9-209.8l2.1-46.1c0,0,1.9-4.2,6.6-2.4c-2.8-4.7-8.3-4.7-9,1.7C109.8-248.6,110.7-214.7,110.9-209.8z
						"/>
					<path class="st13" d="M114.2-204.8c0,0,5.2-0.1,5.9-13.8C121.8-212,120.2-200.9,114.2-204.8z"/>
					<path class="st7" d="M129.9-340.2c3.2,133.3,12.4,136.4,19,154.7C140.9-207.5,133.8-300.8,129.9-340.2z"/>
					<path class="st5" d="M181.2-402c0,0-1.5,101.9-15,139.5C166.9-270.6,177.3-362.6,181.2-402z"/>
					<g>
						<path class="st4" d="M144.9-294.5c-6.1-9.8-9.4-129-6.2-139.1h1.9C140.5-433.6,141.2-300.3,144.9-294.5z"/>
						<path class="st11" d="M156.2-315.9c0-4.7-2.2-8.6-5.8-8.6h-0.6c-3.6,0-6.5,3.8-6.5,8.6v44.5c0,4.7,2.9,8.6,6.5,8.6h0.6
							c3.6,0,5.8-3.8,5.8-8.6V-315.9z"/>
						<path class="st12" d="M145.7-270.8l2.1-46.1c0,0,1.9-4.2,6.6-2.4c-2.8-4.7-8.3-4.7-9,1.7C144.5-309.5,145.4-275.7,145.7-270.8
							z"/>
						<path class="st13" d="M149.3-267.2c0,0,4.2,4,4.8-25C155.7-285.7,155.5-259.2,149.3-267.2z"/>
						<path class="st5" d="M138.4-423.4c0,0-3.7,114,22.6,129.1C147.5-309.2,140.3-402.9,138.4-423.4z"/>
						<path class="st6" d="M139-431.2c0,0,12.2,113.2,40.9,123.2C163.8-320.3,144.6-411.5,139-431.2z"/>
						<path class="st2" d="M137-430.3c0,0,11,126.1,38.5,139.1C160.8-305.1,140.6-410.1,137-430.3z"/>
					</g>
					<g>
						<path class="st4" d="M194.9-206.3c-7.4-7.4-6.1-182.4-2.9-192.5h1.9C193.9-398.8,190.1-211.1,194.9-206.3z"/>
						<path class="st11" d="M196.7-244.9c0-4.7-2.2-8.6-5.8-8.6h-0.6c-3.6,0-6.5,3.8-6.5,8.6v44.5c0,4.7,2.9,8.6,6.5,8.6h0.6
							c3.6,0,5.8-3.8,5.8-8.6V-244.9z"/>
						<path class="st12" d="M186.1-199.8l2.1-46.1c0,0,1.9-4.2,6.6-2.4c-2.8-4.7-8.3-4.7-9,1.7C185-238.6,185.9-204.8,186.1-199.8z"
							/>
						<path class="st13" d="M189.4-196.3c0,0,4.8,3.7,5.5-10C196.6-199.7,195.5-192.4,189.4-196.3z"/>
						<path class="st5" d="M177.5-338.8c0,0,1.5,102,28.4,116.2C191.8-237.1,180.1-318.4,177.5-338.8z"/>
						<path class="st6" d="M171.2-231.1c0,0,41.4-137.5,21.6-160.5C200.6-372.9,176.3-251,171.2-231.1z"/>
						<path class="st6" d="M127.8-385.4c0,0-15.1,123,9.5,140.8C125.4-261,127.5-364.9,127.8-385.4z"/>
					</g>
					<g>
						<path class="st14" d="M118-203.5c0-0.6-1.2-1.2-2.3-1.2c-1.1,0-2.2,0.6-2.2,1.2s1.1,0.1,2.2-0.1
							C116.8-203.8,118-202.9,118-203.5z"/>
						<path class="st15" d="M114.5-204.4c0.9-0.4,1.9-0.3,2.5,0l-1.3,8.3l-0.5,0.3L114.5-204.4z"/>
					</g>
					<g>
						<path class="st14" d="M140.6-168.2c0.1-0.6-1.1-1.3-2.2-1.4c-1.1-0.1-2.2,0.4-2.3,1s1.1,0.2,2.2,0.1
							C139.5-168.5,140.6-167.6,140.6-168.2z"/>
						<path class="st15" d="M137.2-169.4c0.9-0.4,1.9-0.1,2.5,0.3l-2.1,8.1l-0.5,0.3L137.2-169.4z"/>
					</g>
					<g>
						<path class="st14" d="M192.9-193.6c0-0.6-1.2-1.1-2.3-1.1s-2.2,0.7-2.2,1.2c0,0.6,1.1,0.1,2.2-0.1
							C191.8-193.8,193-193,192.9-193.6z"/>
						<path class="st15" d="M189.4-194.5c0.9-0.5,1.8-0.3,2.5,0l-1,5.8l-0.5,0.3L189.4-194.5z"/>
					</g>
					<g>
						<path class="st14" d="M152.4-263.9c0-0.6-1.2-1.1-2.3-1.1s-2.2,0.7-2.2,1.2c0,0.6,1.1,0.1,2.2-0.1
							C151.3-264.1,152.5-263.3,152.4-263.9z"/>
						<path class="st15" d="M148.9-264.8c0.9-0.5,1.8-0.3,2.5,0l-1,5.8l-0.5,0.3L148.9-264.8z"/>
					</g>
					<path class="st2" d="M204.7-387.9c0,0-5.6,129.6-21.3,166.3C184.7-229.7,198.4-348.9,204.7-387.9z"/>
					<path class="st5" d="M107.5-396.9c0,0-1.6,124.2,25.2,138.4C118.7-273.1,110.1-376.5,107.5-396.9z"/>
					<path class="st6" d="M101.5-246.1c0,0,41.4-137.5,21.6-160.5C131-388,106.6-266.1,101.5-246.1z"/>
					<path class="st2" d="M128.2-387.9c0,0-5.6,129.6-21.3,166.3C108.1-229.7,121.9-348.9,128.2-387.9z"/>
					<path class="st16" d="M173.5-269.6c0-4.7-2.2-8.6-5.8-8.6h-0.6c-3.6,0-6.5,3.8-6.5,8.6v44.5c0,4.7,2.9,8.6,6.5,8.6h0.6
						c3.6,0,5.8-3.8,5.8-8.6V-269.6z"/>
					<path class="st17" d="M162.9-224.5l2.1-46.1c0,0,1.9-4.2,6.6-2.4c-2.8-4.7-8.3-4.7-9,1.7C161.7-263.3,162.6-229.4,162.9-224.5z
						"/>
					<path class="st18" d="M165.8-219.2c0,0,5.2-0.1,5.9-13.8C173.4-226.4,171.8-215.3,165.8-219.2z"/>
					<g>
						<path class="st14" d="M170.4-217.9c0-0.6-1.2-1.1-2.3-1.1s-2.2,0.7-2.2,1.2c0,0.6,1.1,0.1,2.2-0.1
							C169.3-218.1,170.4-217.3,170.4-217.9z"/>
						<path class="st15" d="M166.9-218.7c0.9-0.5,1.8-0.3,2.5,0l-1,5.8l-0.5,0.3L166.9-218.7z"/>
					</g>
				</g>
				<path class="st7" d="M173.2-415.8c0,0,1,129.8-12.3,167.4C161.5-256.6,169.4-376.5,173.2-415.8z"/>
				<path class="st2" d="M137.7-390.9c0,0-1.2,129.8-15.4,167.1C123.1-232,133-351.6,137.7-390.9z"/>
			</g>
			<g>
				<rect y="-438.6" class="st1" width="99.9" height="187.1"/>
				<g>
					<g>
						<path class="st4" d="M52.7-168.4c6.8-9.2,17.5-100.5,15.2-110.8l-1.9-0.2C66-279.3,56.8-173.8,52.7-168.4z"/>
						<path class="st5" d="M66.5-268.4c0,0-3.7,86.6,22.6,101.6C75.6-181.8,68.5-248,66.5-268.4z"/>
						<path class="st5" d="M67.1-276.3c0,0,12.2,85.8,40.9,95.7C91.9-192.8,72.8-256.5,67.1-276.3z"/>
					</g>
					<path class="st4" d="M64.1-267.3l7.2-164.3l2.1,0.4C73.5-431.2,70.9-269,64.1-267.3z"/>
					<path class="st2" d="M65.5-424.3c0,0-5.3,128,17.2,163.5C67.4-298.3,69.4-385,65.5-424.3z"/>
					<g>
						<path class="st2" d="M48.2-219.4l17.5-164.9l0.5-16C66.2-400.3,62.3-232.1,48.2-219.4z"/>
					</g>
					<path class="st5" d="M81.3-402c0,0-1.5,101.9-15,139.5C67-270.6,77.4-362.6,81.3-402z"/>
					<g>
						<path class="st11" d="M56.4-315.9c0-4.7-2.2-8.6-5.8-8.6H50c-3.6,0-6.5,3.8-6.5,8.6v44.5c0,4.7,2.9,8.6,6.5,8.6h0.6
							c3.6,0,5.8-3.8,5.8-8.6C56.4-271.4,56.4-315.9,56.4-315.9z"/>
						<path class="st12" d="M45.8-270.8l2.1-46.1c0,0,1.9-4.2,6.6-2.4c-2.8-4.7-8.3-4.7-9,1.7C44.7-309.5,45.6-275.7,45.8-270.8z"/>
						<path class="st13" d="M49.4-267.2c0,0,4.2,4,4.8-25C55.8-285.7,55.6-259.2,49.4-267.2z"/>
						<path class="st5" d="M38.5-423.4c0,0-3.7,114,22.6,129.1C47.6-309.2,40.5-402.9,38.5-423.4z"/>
						<path class="st6" d="M39.1-431.2c0,0,12.2,113.2,40.9,123.2C63.9-320.3,44.8-411.5,39.1-431.2z"/>
						<path class="st2" d="M37.2-430.3c0,0,11,126.1,38.5,139.1C61-305.1,40.7-410.1,37.2-430.3z"/>
					</g>
					<g>
						<path class="st4" d="M95-206.3c-7.4-7.4-6.1-182.4-2.9-192.5H94C94-398.8,90.2-211.1,95-206.3z"/>
						<path class="st11" d="M96.9-244.9c0-4.7-2.2-8.6-5.8-8.6h-0.6c-3.6,0-6.5,3.8-6.5,8.6v44.5c0,4.7,2.9,8.6,6.5,8.6h0.6
							c3.6,0,5.8-3.8,5.8-8.6V-244.9z"/>
						<path class="st12" d="M86.3-199.8l2.1-46.1c0,0,1.9-4.2,6.6-2.4c-2.8-4.7-8.3-4.7-9,1.7C85.2-238.6,86-204.8,86.3-199.8z"/>
						<path class="st13" d="M89.6-196.3c0,0,4.8,3.7,5.5-10C96.7-199.7,95.6-192.4,89.6-196.3z"/>
						<path class="st5" d="M77.7-338.8c0,0,1.5,102,28.4,116.2C92-237.1,80.2-318.4,77.7-338.8z"/>
						<path class="st6" d="M71.4-231.1c0,0,41.4-137.5,21.6-160.5C100.8-372.9,76.4-251,71.4-231.1z"/>
					</g>
					<g>
						<path class="st14" d="M93.1-193.6c0-0.6-1.2-1.1-2.3-1.1c-1.1,0-2.2,0.7-2.2,1.2c0,0.6,1.1,0.1,2.2-0.1
							C91.9-193.8,93.1-193,93.1-193.6z"/>
						<path class="st15" d="M89.6-194.5c0.9-0.5,1.8-0.3,2.5,0l-1,5.8l-0.5,0.3L89.6-194.5z"/>
					</g>
					<g>
						<path class="st14" d="M52.6-263.9c0-0.6-1.2-1.1-2.3-1.1s-2.2,0.7-2.2,1.2c0,0.6,1.1,0.1,2.2-0.1
							C51.4-264.1,52.6-263.3,52.6-263.9z"/>
						<path class="st15" d="M49.1-264.8c0.9-0.5,1.8-0.3,2.5,0l-1,5.8l-0.5,0.3L49.1-264.8z"/>
					</g>
					<path class="st2" d="M104.9-387.9c0,0-5.6,129.6-21.3,166.3C84.8-229.7,98.6-348.9,104.9-387.9z"/>
					<path class="st16" d="M73.6-269.6c0-4.7-2.2-8.6-5.8-8.6h-0.6c-3.6,0-6.5,3.8-6.5,8.6v44.5c0,4.7,2.9,8.6,6.5,8.6h0.6
						c3.6,0,5.8-3.8,5.8-8.6V-269.6z"/>
					<path class="st17" d="M63-224.5l2.1-46.1c0,0,1.9-4.2,6.6-2.4c-2.8-4.7-8.3-4.7-9,1.7C61.9-263.3,62.8-229.4,63-224.5z"/>
					<path class="st18" d="M66-219.2c0,0,5.2-0.1,5.9-13.8C73.5-226.4,72-215.3,66-219.2z"/>
					<g>
						<path class="st14" d="M70.6-217.9c0-0.6-1.2-1.1-2.3-1.1c-1.1,0-2.2,0.7-2.2,1.2c0,0.6,1.1,0.1,2.2-0.1
							C69.4-218.1,70.6-217.3,70.6-217.9z"/>
						<path class="st15" d="M67-218.7c0.9-0.5,1.8-0.3,2.5,0l-1,5.8l-0.5,0.3L67-218.7z"/>
					</g>
				</g>
				<path class="st7" d="M73.3-415.8c0,0,1,129.8-12.3,167.4C61.7-256.6,69.5-376.5,73.3-415.8z"/>
			</g>
		</g>
	</g>
</pattern>
<g class="st19">
	
		<pattern  id="SVGID_1_" xlink:href="#繧ｬ繝枩_x28_繧ｫ繝ｩ繝ｼ_x29_" patternTransform="matrix(1 0 0 -1 49.7 -16963.3008)">
	</pattern>
	<path class="st20" d="M18.7,29.6h-5.4l-0.1-2.3H17v-7.6h-5.5L11,29.5H5.3l-1.5-13h4.7l-0.1-1.6H3.5L3.1,11h5L7.9,8.8H12V11h4.3
		l-0.2,3.9h-4.3l-0.1,1.6h8.4L18.7,29.6z M8.8,19.8h-2l0.3,7.6h2.2L8.8,19.8z M20.2,14.9h-3.3l0.2-4h3.5L20.2,14.9z"/>
	
		<pattern  id="SVGID_2_" xlink:href="#繧ｬ繝枩_x28_繧ｫ繝ｩ繝ｼ_x29_" patternTransform="matrix(1 0 0 -1 49.7 -16963.3008)">
	</pattern>
	<path class="st21" d="M40.4,14.6H37l-0.1,1.8h3.4L40,19.7h-3.3l-0.3,3.5h-2.5l-0.2-3.5h-8.2l-0.3-3.3h8.2l-0.1-1.8h-8.4l-0.5-4.1
		H33l-0.1-1.8h4.6l-0.1,1.7H41L40.4,14.6z M39.2,29.6H26.7L26,23.1h2.6l0.2,4.3h10.5L39.2,29.6z"/>
	
		<pattern  id="SVGID_3_" xlink:href="#繧ｬ繝枩_x28_繧ｫ繝ｩ繝ｼ_x29_" patternTransform="matrix(1 0 0 -1 49.7 -16963.3008)">
	</pattern>
	<path class="st22" d="M54.6,15.2h-5.4l-0.5,9.4h-1.8L46,15.2h-1.1l-0.5-4h1.2l-0.2-2.3h4.2l-0.1,2.3h5.3L54.6,15.2z M61.7,15.2
		h-1.9L59,21.6h2.1l-0.4,2.8h-2.1L58,29.5h-7.8L50,21.6h6.5v-6.8l-0.1-3.6h5.8L61.7,15.2z M56.5,24.4h-4.1v3.2h4.2L56.5,24.4z"/>
	
		<pattern  id="SVGID_4_" xlink:href="#繧ｬ繝枩_x28_繧ｫ繝ｩ繝ｼ_x29_" patternTransform="matrix(1 0 0 -1 49.7 -16963.3008)">
	</pattern>
	<path class="st23" d="M80.7,29.5h-5.8v-2.4h3.8l0.2-12.7H77l-6.6,8l0.1,7.3h-1.9L68,25.3L66.6,27l-0.4-3.1l1.3-2L67,17.8h-1.7
		l-0.7-4.4h1.9L66,8.6h4.3l0.1,9.3l5.1-7.6h7.3L80.7,29.5z"/>
	
		<pattern  id="SVGID_5_" xlink:href="#繧ｬ繝枩_x28_繧ｫ繝ｩ繝ｼ_x29_" patternTransform="matrix(1 0 0 -1 49.7 -16963.3008)">
	</pattern>
	<path class="st24" d="M99.9,19h-5.3l-0.1,3.7h4.9l-0.3,2.4h-4.7l-0.1,4.3H93l-0.6-4.3h-5.1l-0.4-2.4h5.2L91.6,19h-5.2l-0.5-3.3h5.2
		l-0.4-3.1h4l-0.1,3.1h5.6L99.9,19z"/>
	
		<pattern  id="SVGID_6_" xlink:href="#繧ｬ繝枩_x28_繧ｫ繝ｩ繝ｼ_x29_" patternTransform="matrix(1 0 0 -1 49.7 -16963.3008)">
	</pattern>
	<path class="st25" d="M114.1,25h-1.4v-2.7h-3.1l0.6,7.1h-1.1l-1.5-7.1H106l-0.3-2.2h1.4l-0.3-1.4h2.5l0.1,1.4h5.6L114.1,25z"/>
	
		<pattern  id="SVGID_7_" xlink:href="#繧ｬ繝枩_x28_繧ｫ繝ｩ繝ｼ_x29_" patternTransform="matrix(1 0 0 -1 49.7 -16963.3008)">
	</pattern>
	<path class="st26" d="M120.8,18.6l-0.4-3.6h6.9v3.6H120.8z M131.9,29.1h-10l-0.2-2h8.8l0.5-12.6h3.2L131.9,29.1z"/>
	
		<pattern  id="SVGID_8_" xlink:href="#繧ｬ繝枩_x28_繧ｫ繝ｩ繝ｼ_x29_" patternTransform="matrix(1 0 0 -1 49.7 -16963.3008)">
	</pattern>
	<path class="st27" d="M140.4,28.8h-1.7l0.5-14.3h3.7L140.4,28.8z M148.7,28.8l-2.9-14.5h2.1v2.5h1.9l0.6,11.9h-1.7V28.8z
		 M150.9,16.6h-2.7l-0.1-3.3h3.1L150.9,16.6z M148.9,14l-0.1,1.9h1.5l0.2-1.9H148.9z"/>
	
		<pattern  id="SVGID_9_" xlink:href="#繧ｬ繝枩_x28_繧ｫ繝ｩ繝ｼ_x29_" patternTransform="matrix(1 0 0 -1 49.7 -16963.3008)">
	</pattern>
	<path class="st28" d="M167.3,17.2l-4.4,5.3l4.1,6.4h-1.8l-4-4.3l-3.5,4.3h-2.1l7.7-11.7h-8.5l-0.3-3.4h13.3L167.3,17.2z"/>
	
		<pattern  id="SVGID_10_" xlink:href="#繧ｬ繝枩_x28_繧ｫ繝ｩ繝ｼ_x29_" patternTransform="matrix(1 0 0 -1 49.7 -16963.3008)">
	</pattern>
	<path class="st29" d="M193,14.6h-16.9l-0.5-3.8h17.8L193,14.6z M192.4,20.7l-2.8,9.5h-10.5l-0.2-2.1h9l1.1-7.4h-12.3l-0.4-3.2h16.5
		L192.4,20.7z"/>
	
		<pattern  id="SVGID_11_" xlink:href="#繧ｬ繝枩_x28_繧ｫ繝ｩ繝ｼ_x29_" patternTransform="matrix(1 0 0 -1 49.7 -16963.3008)">
	</pattern>
	<path class="st30" d="M215,15.2l-10,3.7h9.6l-1.5,11.3h-13.2l-0.9-6.8h9.4l-0.2,4.8h3.1v-6.5L199,21.6l-0.4-2.6l9.4-3.9h-9.5
		l-0.4-3.5h17.5L215,15.2z M206.1,25.7H202l0.1,2.5h4.1L206.1,25.7z"/>
	
		<pattern  id="SVGID_12_" xlink:href="#繧ｬ繝枩_x28_繧ｫ繝ｩ繝ｼ_x29_" patternTransform="matrix(1 0 0 -1 49.7 -16963.3008)">
	</pattern>
	<path class="st31" d="M237.6,15.8h-3.1l-0.2,1.7h3.2l-0.4,3.1H234l-0.2,1.9h3.1l-0.3,2.7h-3L233,30h-10.9l-0.9-7.5h9.7l-0.1-1.9
		H221l-0.4-3.1h9.9l-0.1-1.7h-10l-0.4-3.6h10.3l-0.1-1.3h7l-0.2,1.3h1L237.6,15.8z M231,25.2h-7l0.1,2.8h7L231,25.2z"/>
	
		<pattern  id="SVGID_13_" xlink:href="#繧ｬ繝枩_x28_繧ｫ繝ｩ繝ｼ_x29_" patternTransform="matrix(1 0 0 -1 49.7 -16963.3008)">
	</pattern>
	<path class="st32" d="M256.3,30.3c-0.2-1.4-0.4-2.1-0.7-3.1l-0.7-2.4h-7.8l-0.7,2.4c-0.4,1.1-0.5,2-0.7,3.1h-6.4
		c0.4-0.9,0.7-1.6,1.3-3.5l5.9-17.3c0.5-1.4,0.7-2.3,0.9-3.1h7.2c0.2,0.8,0.4,1.6,0.9,3.1l6,17.3c0.5,1.5,1,2.7,1.3,3.5H256.3z
		 M250.9,11.3l-2.6,8.6h5.2L250.9,11.3z"/>
	
		<pattern  id="SVGID_14_" xlink:href="#繧ｬ繝枩_x28_繧ｫ繝ｩ繝ｼ_x29_" patternTransform="matrix(1 0 0 -1 49.7 -16963.3008)">
	</pattern>
	<path class="st33" d="M281.2,22.9h-6.5l-0.6,6.8h-2l-0.6-6.8h-6.6l-0.4-3.1h6.8l-0.3-3.2l-5.9,0.5l-0.4-3.8l16.9-2l-0.4,4.4
		l-5.8,0.5l-0.3,3.5h6.7L281.2,22.9z"/>
	
		<pattern  id="SVGID_15_" xlink:href="#繧ｬ繝枩_x28_繧ｫ繝ｩ繝ｼ_x29_" patternTransform="matrix(1 0 0 -1 49.7 -16963.3008)">
	</pattern>
	<path class="st34" d="M303.3,21.6h-16l-0.5-3.3h16.9L303.3,21.6z"/>
	
		<pattern  id="SVGID_16_" xlink:href="#繧ｬ繝枩_x28_繧ｫ繝ｩ繝ｼ_x29_" patternTransform="matrix(1 0 0 -1 49.7 -16963.3008)">
	</pattern>
	<path class="st35" d="M325.4,29.4h-15.5l-0.4-2.5l3.7-15h5L312.4,27H323l-2.4-7h3.6l1.5,7.1L325.4,29.4z"/>
</g>
<g>
	<path class="st36" d="M39.2,31.5v1.1h-6.2V22.4h-1.2v0.4h0.8v2.9h-1.1v0.6c0.6-0.1,1-0.2,1.1-0.3v5.7c-0.7,0.5-1.4,0.6-7.3,0.6
		v-6.3c0.1,0,0.3,0,0.4,0v-3.3H28v3.3c0.1,0,0.3,0,0.4,0v-3.7h-2.8v-1.6c-0.3,0.7-0.6,1.3-1,1.9H25v9.8h-5v-5.7
		c-0.3,0.1-0.5,0.2-0.8,0.2v-6.6c0.7-0.2,1.1-0.7,1.4-1.5c-0.5,0.2-0.9,0.4-1.4,0.5V13c0.8-0.5,1.4-1.7,1.4-2.8h5.4
		c-0.4,2.8-1.3,4.8-2.4,6.4H25c0.4-1.6,1.1-5,1.1-6.4h4.7c0,0.2,0,0.5,0,0.7h1.9v5.8h-0.8v0.9h1.2v-7.1h8.5v18.2
		C41.6,30.4,40.6,31.2,39.2,31.5z M28.4,16.6H28c0,0.2-0.1,0.4-0.1,0.5h-1.2c0,0.1,0,0.3-0.1,0.4h1.8V16.6z M37.2,16.5h-0.6v8.6h0.2
		c0.2,0,0.4-0.1,0.5-0.3V16.5z"/>
	<path class="st36" d="M49.5,32.5h-6.4c0.6-0.9,1.3-3,1.4-4.4h6C50.5,29.5,50.1,31.2,49.5,32.5z M64.6,24.5v3.1h-6.7v4.8h-7.1v-4.8
		h-6.7v-3.1c-0.3,0-0.6,0.1-0.9,0.1v-6.4c2.7,0,4.8-0.6,5.9-1.2h-2.9v-0.9h-3.1v-5.3h3.1v-0.7h6.1v0.7h3.9v-0.7h6.1v0.7h3.1v5.3
		h-3.1V17h-3c1.2,0.7,3.4,1.2,6.1,1.2v6.4C65.3,24.6,65,24.6,64.6,24.5z M51.8,22.2c-0.6,0.3-1.3,0.6-1.9,0.9h1.9V22.2z M56.3,15.9
		h-3.9v0.5l3.9,0V15.9z M54.3,20.7c-0.5,0.4-1.1,0.7-1.7,1h3.2C55.3,21.4,54.8,21,54.3,20.7z M57,22.3V23h1.7
		C58.1,22.8,57.5,22.6,57,22.3z M59.6,32.5l-1.4-4.4h6.1l1.4,4.4H59.6z"/>
	<path class="st36" d="M84.1,20.7l-5.7,6.5C75,31,72.1,32,68,32h-1v-7h0.8c1.9,0,3.5-0.6,4.8-2.2l5-5.5c5-5.6,7.3-6.6,10.9-6.6v7.6
		C86.9,18.2,85.7,18.8,84.1,20.7z"/>
	<path class="st36" d="M89.7,31.9v-7.9c1.1-0.5,2.2-2.6,2.4-4.7h-2.4v-6.1h8.4v7C97.4,25.8,94,30.5,89.7,31.9z M105.1,24.7v2.9
		c0,3.2-0.9,5-4.4,5h-4.1v-6.3h1.6c0.3,0,0.5-0.2,0.5-0.6V10.1h6.5v4.8l7.1-3.3v7.1l-3.2,1.4c0.6,1.6,1.7,2.7,3.2,3.7V32
		C109,30.7,106.6,28.1,105.1,24.7z"/>
	<path class="st36" d="M127.5,29.3l0.3,2.3H122l-0.3-2.3h-8.3v-5.5h7.6l-0.4-2.8h-7.2v-5.5h6.5l-0.2-1.3h5.8l0.2,1.3h5.8v5.5h-5
		l0.4,2.8h4.7v5.5H127.5z"/>
	<path class="st36" d="M141.2,29.5h-1.8v-4.6h1.8c1.4,0,1.7-0.3,1.7-1.4v-0.4h-4.3l0.3,8.7h-4.5l-0.3-8.7h-1.5v-4.5h1.4l0-1h4.5l0,1
		h9.1v3.7C147.5,27.6,146.2,29.5,141.2,29.5z"/>
	<path class="st36" d="M165.9,22.2c-0.9,6.6-4.7,9.4-11.9,9.4h-5.5V26h4.8c5.2,0,6.2-1.6,6.8-4.2c1-4.8,2.1-6.6,6.7-7.2v6.4
		C166.1,21.2,165.9,21.7,165.9,22.2z M148.5,20.5v-5.6h8.3v5.6H148.5z"/>
	<path class="st36" d="M168.1,31.9v-6.3c1.5-0.3,1.9-1.2,1.9-2.8v-8.6h5.7v8.4C175.7,28.2,173.2,31.4,168.1,31.9z M184.7,18.7v4.1
		c0,1.7,0.5,2.6,1.9,2.8v6.3c-5.1-0.6-7.6-3.8-7.6-9.2v-8.4h2.8c0.5-0.7,1.3-1,2.4-1c1.9,0,2.8,0.9,2.8,2.7
		C187,17.7,186.2,18.6,184.7,18.7z M184.2,15.3c-0.5,0-0.7,0.2-0.7,0.7c0,0.6,0.2,0.7,0.7,0.7c0.5,0,0.7-0.2,0.7-0.7
		C184.9,15.5,184.6,15.3,184.2,15.3z"/>
	<path class="st36" d="M198,29.4c-2.5,1.5-5.8,2.4-10.2,2.4V26c7.9,0,10.1-3.9,10.1-5.5V20h-9.5v-5.3h15.6v4.4
		c0,1.9-0.5,4.1-1.8,6.1c1.2,0.5,2.4,0.6,3.9,0.6v5.8C201.7,31.7,200.3,31,198,29.4z"/>
	<path class="st37" d="M231.5,32.1h-14.3v-6.3h12c0.7,0,0.8-0.3,0.8-0.7c0-0.6-0.3-0.8-0.8-0.8h-10.9v-5.9h-2.8v-6.3h2.8v-1.3h7.1
		v1.3h12v6.3h-12v1.2h6.1c4.4,0,6.1,2.9,6.1,6.2C237.7,29.6,235.5,32.1,231.5,32.1z"/>
	<path class="st38" d="M253.7,17.2v1c4,0.4,7.6,2.3,7.6,9.2v2h-6.6v-2.5c0-1.2-0.3-2-1.1-2.4v1.9c0,4-1.6,6.2-6.6,6.2
		c-5.5,0-8-2-8-7.5c0-4.9,3.5-6.9,7.8-7v-7.4h6.7v0.9h7.7v5.6H253.7z M247.9,24.2h-0.8c-0.7,0-1.1,0.5-1.1,0.9c0,0.7,0.5,1,0.9,1
		c0.6,0,1-0.2,1-0.9V24.2z"/>
	<path class="st39" d="M280.9,16.8v1.1h-10l-0.6,14.3h-6.6l0.6-14.3H263v-6.6h1.5l0-0.7h6.6l0,0.7h8.4v-0.7h5.8v2.7h-4.4v0.8h4.4
		v2.7H280.9z M277.7,32.1c-4.5,0-6.4-2.5-6.4-7.1c0-3.8,2.3-6.4,6.7-6.4h6.8v5.1h-5.7c-0.4,0-0.6,0.3-0.6,0.7c0,0.4,0.1,0.7,0.6,0.7
		h5.7v7H277.7z"/>
	<path class="st40" d="M290.1,32.7h-3.4c0.3-1,0.5-2.9,0.5-4.7h3.3C290.5,30.4,290.4,31.5,290.1,32.7z M287.3,27.6v-8.3
		c-0.2,0.1-0.4,0.2-0.6,0.3v-6.4c0.9-0.3,1.8-1.6,2.1-3h4.9c0,0.1,0,0.3-0.1,0.4h3.8v3.1l-0.8,1.4h0.8v12.6H287.3z M291.4,19.1h-0.7
		v1h0.7V19.1z M291.4,22.6h-0.7v0.9h0.7V22.6z M290.9,32.2V28h1.9v4.3H290.9z M292.1,14.5c-0.1,0.2-0.2,0.4-0.3,0.5h1.2l0.3-0.5
		H292.1z M293.2,32.2V28h1.9v4.3H293.2z M294,19.1h-0.7v1h0.7V19.1z M294,22.6h-0.7v0.9h0.7V22.6z M295.5,32.2V28h1.9v4.3H295.5z
		 M305.7,20.5h-4.4c-2.4,0-3.5-0.9-3.5-3.7v-6.6h5.3v0.7l5.9-0.7v4.3l-5.9,0.7v0.1c0,0.1,0,0.2,0.2,0.2h1.8c1.6,0,3-0.3,4.2-0.8v5.1
		C308.4,20.2,307.1,20.5,305.7,20.5z M297.8,32.4V20.9H309v11.5H297.8z M303.9,24.6h-1v0.8h1V24.6z M303.9,27.9h-1v0.8h1V27.9z"/>
</g>
</svg>
